<mxfile host="app.diagrams.net" agent="Mozilla/5.0 (Windows NT 10.0; Win64; x64) AppleWebKit/537.36 (KHTML, like Gecko) Chrome/122.0.0.0 Safari/537.36" version="26.2.3">
  <diagram name="1 oldal" id="v5EixBLNwr75e_wbzo82">
    <mxGraphModel dx="1298" dy="683" grid="1" gridSize="10" guides="1" tooltips="1" connect="1" arrows="1" fold="1" page="1" pageScale="1" pageWidth="827" pageHeight="1169" math="0" shadow="0">
      <root>
        <mxCell id="0" />
        <mxCell id="1" parent="0" />
        <mxCell id="Mzl1R8hjZluAE1irrndK-48" value="" style="rounded=0;whiteSpace=wrap;html=1;" vertex="1" parent="1">
          <mxGeometry x="710" y="470" width="1080" height="480" as="geometry" />
        </mxCell>
        <mxCell id="Mzl1R8hjZluAE1irrndK-49" value="" style="rounded=0;whiteSpace=wrap;html=1;" vertex="1" parent="1">
          <mxGeometry x="710" y="470" width="1080" height="120" as="geometry" />
        </mxCell>
        <mxCell id="Mzl1R8hjZluAE1irrndK-50" style="edgeStyle=orthogonalEdgeStyle;rounded=0;orthogonalLoop=1;jettySize=auto;html=1;exitX=0.5;exitY=0;exitDx=0;exitDy=0;" edge="1" parent="1" source="Mzl1R8hjZluAE1irrndK-51">
          <mxGeometry relative="1" as="geometry">
            <mxPoint x="1250" y="930" as="targetPoint" />
          </mxGeometry>
        </mxCell>
        <mxCell id="Mzl1R8hjZluAE1irrndK-51" value="" style="rounded=0;whiteSpace=wrap;html=1;" vertex="1" parent="1">
          <mxGeometry x="710" y="930" width="1080" height="20" as="geometry" />
        </mxCell>
        <mxCell id="Mzl1R8hjZluAE1irrndK-52" value="" style="rounded=0;whiteSpace=wrap;html=1;" vertex="1" parent="1">
          <mxGeometry x="1690" y="470" width="100" height="120" as="geometry" />
        </mxCell>
        <mxCell id="Mzl1R8hjZluAE1irrndK-53" value="" style="rounded=0;whiteSpace=wrap;html=1;" vertex="1" parent="1">
          <mxGeometry x="850" y="500" width="120" height="60" as="geometry" />
        </mxCell>
        <mxCell id="Mzl1R8hjZluAE1irrndK-54" value="" style="rounded=0;whiteSpace=wrap;html=1;" vertex="1" parent="1">
          <mxGeometry x="1520" y="500" width="120" height="60" as="geometry" />
        </mxCell>
        <mxCell id="Mzl1R8hjZluAE1irrndK-55" value="" style="rounded=0;whiteSpace=wrap;html=1;" vertex="1" parent="1">
          <mxGeometry x="1030" y="500" width="120" height="60" as="geometry" />
        </mxCell>
        <mxCell id="Mzl1R8hjZluAE1irrndK-56" value="" style="rounded=0;whiteSpace=wrap;html=1;" vertex="1" parent="1">
          <mxGeometry x="1360" y="500" width="120" height="60" as="geometry" />
        </mxCell>
        <mxCell id="Mzl1R8hjZluAE1irrndK-57" value="" style="rounded=0;whiteSpace=wrap;html=1;" vertex="1" parent="1">
          <mxGeometry x="1200" y="500" width="120" height="60" as="geometry" />
        </mxCell>
        <mxCell id="Mzl1R8hjZluAE1irrndK-58" value="" style="rounded=0;whiteSpace=wrap;html=1;" vertex="1" parent="1">
          <mxGeometry x="1710" y="500" width="60" height="60" as="geometry" />
        </mxCell>
        <mxCell id="Mzl1R8hjZluAE1irrndK-59" value="" style="rounded=0;whiteSpace=wrap;html=1;" vertex="1" parent="1">
          <mxGeometry x="780" y="590" width="940" height="340" as="geometry" />
        </mxCell>
        <mxCell id="Mzl1R8hjZluAE1irrndK-60" value="Kezdőlap" style="text;html=1;align=center;verticalAlign=middle;whiteSpace=wrap;rounded=0;" vertex="1" parent="1">
          <mxGeometry x="850" y="500" width="120" height="60" as="geometry" />
        </mxCell>
        <mxCell id="Mzl1R8hjZluAE1irrndK-61" value="" style="rounded=0;whiteSpace=wrap;html=1;" vertex="1" parent="1">
          <mxGeometry x="730" y="500" width="60" height="60" as="geometry" />
        </mxCell>
        <mxCell id="Mzl1R8hjZluAE1irrndK-62" value="&lt;div&gt;Logo&lt;/div&gt;" style="text;html=1;align=center;verticalAlign=middle;whiteSpace=wrap;rounded=0;" vertex="1" parent="1">
          <mxGeometry x="730" y="500" width="60" height="60" as="geometry" />
        </mxCell>
        <mxCell id="Mzl1R8hjZluAE1irrndK-63" value="Étel &amp;amp; Ital" style="text;html=1;align=center;verticalAlign=middle;whiteSpace=wrap;rounded=0;" vertex="1" parent="1">
          <mxGeometry x="1030" y="500" width="120" height="60" as="geometry" />
        </mxCell>
        <mxCell id="Mzl1R8hjZluAE1irrndK-64" value="Társasok" style="text;html=1;align=center;verticalAlign=middle;whiteSpace=wrap;rounded=0;" vertex="1" parent="1">
          <mxGeometry x="1200" y="500" width="120" height="60" as="geometry" />
        </mxCell>
        <mxCell id="Mzl1R8hjZluAE1irrndK-65" value="Foglalás" style="text;html=1;align=center;verticalAlign=middle;whiteSpace=wrap;rounded=0;" vertex="1" parent="1">
          <mxGeometry x="1360" y="500" width="120" height="60" as="geometry" />
        </mxCell>
        <mxCell id="Mzl1R8hjZluAE1irrndK-66" value="Kapcsolat" style="text;html=1;align=center;verticalAlign=middle;whiteSpace=wrap;rounded=0;" vertex="1" parent="1">
          <mxGeometry x="1520" y="500" width="120" height="60" as="geometry" />
        </mxCell>
        <mxCell id="Mzl1R8hjZluAE1irrndK-67" value="Profilom" style="text;html=1;align=center;verticalAlign=middle;whiteSpace=wrap;rounded=0;" vertex="1" parent="1">
          <mxGeometry x="1710" y="500" width="60" height="60" as="geometry" />
        </mxCell>
        <mxCell id="Mzl1R8hjZluAE1irrndK-68" value="Footer (C)" style="text;html=1;align=center;verticalAlign=middle;whiteSpace=wrap;rounded=0;" vertex="1" parent="1">
          <mxGeometry x="710" y="930" width="1080" height="20" as="geometry" />
        </mxCell>
        <mxCell id="Mzl1R8hjZluAE1irrndK-69" value="margin" style="text;html=1;align=center;verticalAlign=middle;whiteSpace=wrap;rounded=0;" vertex="1" parent="1">
          <mxGeometry x="710" y="590" width="70" height="340" as="geometry" />
        </mxCell>
        <mxCell id="Mzl1R8hjZluAE1irrndK-70" value="margin" style="text;html=1;align=center;verticalAlign=middle;whiteSpace=wrap;rounded=0;" vertex="1" parent="1">
          <mxGeometry x="1720" y="590" width="70" height="340" as="geometry" />
        </mxCell>
        <mxCell id="Mzl1R8hjZluAE1irrndK-71" value="" style="rounded=0;whiteSpace=wrap;html=1;" vertex="1" parent="1">
          <mxGeometry x="980" y="590" width="530" height="340" as="geometry" />
        </mxCell>
        <mxCell id="Mzl1R8hjZluAE1irrndK-72" value="Módosítások mentése" style="rounded=0;whiteSpace=wrap;html=1;" vertex="1" parent="1">
          <mxGeometry x="1185" y="844" width="120" height="40" as="geometry" />
        </mxCell>
        <mxCell id="Mzl1R8hjZluAE1irrndK-73" value="Nyelv" style="rounded=0;whiteSpace=wrap;html=1;" vertex="1" parent="1">
          <mxGeometry x="1080" y="700" width="120" height="40" as="geometry" />
        </mxCell>
        <mxCell id="Mzl1R8hjZluAE1irrndK-74" value="Beállítások" style="rounded=0;whiteSpace=wrap;html=1;" vertex="1" parent="1">
          <mxGeometry x="1050" y="620" width="400" height="40" as="geometry" />
        </mxCell>
        <mxCell id="Mzl1R8hjZluAE1irrndK-75" value="X" style="rounded=0;whiteSpace=wrap;html=1;" vertex="1" parent="1">
          <mxGeometry x="1470" y="600" width="30" height="30" as="geometry" />
        </mxCell>
        <mxCell id="Mzl1R8hjZluAE1irrndK-76" value="Sötét Mód" style="rounded=0;whiteSpace=wrap;html=1;" vertex="1" parent="1">
          <mxGeometry x="1290" y="700" width="120" height="40" as="geometry" />
        </mxCell>
        <mxCell id="Mzl1R8hjZluAE1irrndK-77" style="edgeStyle=orthogonalEdgeStyle;rounded=0;orthogonalLoop=1;jettySize=auto;html=1;exitX=0.5;exitY=1;exitDx=0;exitDy=0;" edge="1" parent="1" source="Mzl1R8hjZluAE1irrndK-73" target="Mzl1R8hjZluAE1irrndK-73">
          <mxGeometry relative="1" as="geometry" />
        </mxCell>
        <mxCell id="Mzl1R8hjZluAE1irrndK-78" value="" style="rounded=0;whiteSpace=wrap;html=1;" vertex="1" parent="1">
          <mxGeometry x="710" y="470" width="1080" height="480" as="geometry" />
        </mxCell>
        <mxCell id="Mzl1R8hjZluAE1irrndK-79" value="" style="rounded=0;whiteSpace=wrap;html=1;" vertex="1" parent="1">
          <mxGeometry x="710" y="470" width="1080" height="120" as="geometry" />
        </mxCell>
        <mxCell id="Mzl1R8hjZluAE1irrndK-80" style="edgeStyle=orthogonalEdgeStyle;rounded=0;orthogonalLoop=1;jettySize=auto;html=1;exitX=0.5;exitY=0;exitDx=0;exitDy=0;" edge="1" parent="1" source="Mzl1R8hjZluAE1irrndK-81">
          <mxGeometry relative="1" as="geometry">
            <mxPoint x="1250" y="930" as="targetPoint" />
          </mxGeometry>
        </mxCell>
        <mxCell id="Mzl1R8hjZluAE1irrndK-81" value="" style="rounded=0;whiteSpace=wrap;html=1;" vertex="1" parent="1">
          <mxGeometry x="710" y="930" width="1080" height="20" as="geometry" />
        </mxCell>
        <mxCell id="Mzl1R8hjZluAE1irrndK-82" value="" style="rounded=0;whiteSpace=wrap;html=1;" vertex="1" parent="1">
          <mxGeometry x="1690" y="470" width="100" height="120" as="geometry" />
        </mxCell>
        <mxCell id="Mzl1R8hjZluAE1irrndK-83" value="" style="rounded=0;whiteSpace=wrap;html=1;" vertex="1" parent="1">
          <mxGeometry x="780" y="590" width="940" height="340" as="geometry" />
        </mxCell>
        <mxCell id="Mzl1R8hjZluAE1irrndK-84" value="" style="rounded=0;whiteSpace=wrap;html=1;" vertex="1" parent="1">
          <mxGeometry x="730" y="500" width="60" height="60" as="geometry" />
        </mxCell>
        <mxCell id="Mzl1R8hjZluAE1irrndK-85" value="&lt;div&gt;Logo&lt;/div&gt;" style="text;html=1;align=center;verticalAlign=middle;whiteSpace=wrap;rounded=0;" vertex="1" parent="1">
          <mxGeometry x="730" y="500" width="60" height="60" as="geometry" />
        </mxCell>
        <mxCell id="Mzl1R8hjZluAE1irrndK-86" value="Footer (C)" style="text;html=1;align=center;verticalAlign=middle;whiteSpace=wrap;rounded=0;" vertex="1" parent="1">
          <mxGeometry x="710" y="930" width="1080" height="20" as="geometry" />
        </mxCell>
        <mxCell id="Mzl1R8hjZluAE1irrndK-87" value="margin" style="text;html=1;align=center;verticalAlign=middle;whiteSpace=wrap;rounded=0;" vertex="1" parent="1">
          <mxGeometry x="710" y="590" width="70" height="340" as="geometry" />
        </mxCell>
        <mxCell id="Mzl1R8hjZluAE1irrndK-88" value="margin" style="text;html=1;align=center;verticalAlign=middle;whiteSpace=wrap;rounded=0;" vertex="1" parent="1">
          <mxGeometry x="1720" y="590" width="70" height="340" as="geometry" />
        </mxCell>
        <mxCell id="Mzl1R8hjZluAE1irrndK-89" value="Kapcsolat" style="rounded=0;whiteSpace=wrap;html=1;" vertex="1" parent="1">
          <mxGeometry x="880" y="600" width="710" height="60" as="geometry" />
        </mxCell>
        <mxCell id="Mzl1R8hjZluAE1irrndK-90" value="" style="rounded=0;whiteSpace=wrap;html=1;" vertex="1" parent="1">
          <mxGeometry x="940" y="680" width="620" height="230" as="geometry" />
        </mxCell>
        <mxCell id="Mzl1R8hjZluAE1irrndK-91" value="Email" style="rounded=0;whiteSpace=wrap;html=1;" vertex="1" parent="1">
          <mxGeometry x="960" y="700" width="120" height="40" as="geometry" />
        </mxCell>
        <mxCell id="Mzl1R8hjZluAE1irrndK-92" value="Tel" style="rounded=0;whiteSpace=wrap;html=1;" vertex="1" parent="1">
          <mxGeometry x="960" y="750" width="120" height="40" as="geometry" />
        </mxCell>
        <mxCell id="Mzl1R8hjZluAE1irrndK-93" value="Nyitvatartás" style="rounded=0;whiteSpace=wrap;html=1;" vertex="1" parent="1">
          <mxGeometry x="960" y="808" width="120" height="36" as="geometry" />
        </mxCell>
        <mxCell id="Mzl1R8hjZluAE1irrndK-94" value="Helyszín (fikt.)" style="rounded=0;whiteSpace=wrap;html=1;" vertex="1" parent="1">
          <mxGeometry x="960" y="860" width="120" height="40" as="geometry" />
        </mxCell>
        <mxCell id="Mzl1R8hjZluAE1irrndK-95" value="Text area for sending message" style="rounded=0;whiteSpace=wrap;html=1;" vertex="1" parent="1">
          <mxGeometry x="1240" y="790" width="290" height="94" as="geometry" />
        </mxCell>
        <mxCell id="Mzl1R8hjZluAE1irrndK-96" value="Küldés" style="rounded=0;whiteSpace=wrap;html=1;" vertex="1" parent="1">
          <mxGeometry x="1440" y="854" width="90" height="30" as="geometry" />
        </mxCell>
        <mxCell id="Mzl1R8hjZluAE1irrndK-97" value="Írj nekünk!" style="rounded=0;whiteSpace=wrap;html=1;" vertex="1" parent="1">
          <mxGeometry x="1240" y="700" width="160" height="30" as="geometry" />
        </mxCell>
        <mxCell id="Mzl1R8hjZluAE1irrndK-98" value="Keresztnév" style="rounded=0;whiteSpace=wrap;html=1;" vertex="1" parent="1">
          <mxGeometry x="1340" y="745" width="90" height="30" as="geometry" />
        </mxCell>
        <mxCell id="Mzl1R8hjZluAE1irrndK-99" value="Vezetéknév" style="rounded=0;whiteSpace=wrap;html=1;" vertex="1" parent="1">
          <mxGeometry x="1240" y="745" width="90" height="30" as="geometry" />
        </mxCell>
        <mxCell id="Mzl1R8hjZluAE1irrndK-100" value="Email" style="rounded=0;whiteSpace=wrap;html=1;" vertex="1" parent="1">
          <mxGeometry x="1440" y="745" width="90" height="30" as="geometry" />
        </mxCell>
        <mxCell id="Mzl1R8hjZluAE1irrndK-101" value="&amp;nbsp;Fiók Bej/Reg" style="rounded=0;whiteSpace=wrap;html=1;" vertex="1" parent="1">
          <mxGeometry x="1695" y="485" width="90" height="40" as="geometry" />
        </mxCell>
        <mxCell id="Mzl1R8hjZluAE1irrndK-102" value="Profilom" style="rounded=0;whiteSpace=wrap;html=1;" vertex="1" parent="1">
          <mxGeometry x="1710" y="530" width="60" height="40" as="geometry" />
        </mxCell>
        <mxCell id="Mzl1R8hjZluAE1irrndK-103" value="Kezdőlap&lt;span style=&quot;white-space: pre;&quot;&gt;&#x9;&lt;/span&gt;" style="rounded=0;whiteSpace=wrap;html=1;" vertex="1" parent="1">
          <mxGeometry x="830" y="500" width="120" height="60" as="geometry" />
        </mxCell>
        <mxCell id="Mzl1R8hjZluAE1irrndK-104" value="Zenék" style="rounded=0;whiteSpace=wrap;html=1;" vertex="1" parent="1">
          <mxGeometry x="980" y="500" width="120" height="60" as="geometry" />
        </mxCell>
        <mxCell id="Mzl1R8hjZluAE1irrndK-105" value="Filmek/Sorozatok" style="rounded=0;whiteSpace=wrap;html=1;" vertex="1" parent="1">
          <mxGeometry x="1130" y="500" width="120" height="60" as="geometry" />
        </mxCell>
        <mxCell id="Mzl1R8hjZluAE1irrndK-106" value="Rendelési kosár" style="rounded=0;whiteSpace=wrap;html=1;" vertex="1" parent="1">
          <mxGeometry x="1280" y="550" width="130" height="40" as="geometry" />
        </mxCell>
        <mxCell id="Mzl1R8hjZluAE1irrndK-107" value="Foglalási kosár" style="rounded=0;whiteSpace=wrap;html=1;" vertex="1" parent="1">
          <mxGeometry x="1425" y="550" width="120" height="40" as="geometry" />
        </mxCell>
        <mxCell id="Mzl1R8hjZluAE1irrndK-108" value="Kapcsolat" style="rounded=0;whiteSpace=wrap;html=1;" vertex="1" parent="1">
          <mxGeometry x="1560" y="500" width="120" height="60" as="geometry" />
        </mxCell>
        <mxCell id="Mzl1R8hjZluAE1irrndK-110" value="Kosár" style="rounded=0;whiteSpace=wrap;html=1;" vertex="1" parent="1">
          <mxGeometry x="1275" y="500" width="270" height="60" as="geometry" />
        </mxCell>
      </root>
    </mxGraphModel>
  </diagram>
</mxfile>
